<?xml version="1.0" encoding="utf-8"?>
<svg viewBox="0 0 4000 4000" style="enable-background:new 0 0 4000 4000;" xmlns="http://www.w3.org/2000/svg">
  <g transform="matrix(2.445796012878418, 0, 0, 2.445796012878418, -2745.47509765625, -1891.7232666015627)">
    <g>
      <defs>
        <path id="SVGID_1_" d="M2170.887,1506.109c-4.995,74.943,392.625,621.182,440.727-36.341V800.571h-440.727V1506.109z"/>
      </defs>
      <clipPath id="SVGID_00000079470899575917177510000002859753557560521601_">
        <path d="M2170.887,1506.109c-4.995,74.943,392.625,621.182,440.727-36.341V800.571h-440.727V1506.109z" style="overflow: visible;"/>
      </clipPath>
      <linearGradient id="SVGID_00000152250795508499978740000002804458409311665062_" gradientUnits="userSpaceOnUse" x1="2329.4817" y1="1797.0984" x2="2542.6794" y2="598.6988">
        <stop offset="0" style="stop-color:#102770"/>
        <stop offset="1" style="stop-color:#37DACF"/>
      </linearGradient>
      <rect x="2165.892" y="800.571" style="clip-path:url(#SVGID_00000079470899575917177510000002859753557560521601_);fill:url(#SVGID_00000152250795508499978740000002804458409311665062_);" width="445.722" height="1326.721"/>
    </g>
    <g>
      <defs>
        <path id="SVGID_00000127755677977637961650000010538651663539642813_" d="M2611.614,1469.768 c-42.765,577.446-440.727,36.341-440.727,36.341c-529.929-455.044-473.061,71.12-461.258,96.694l606.502,779.004h295.483 V1469.768z"/>
      </defs>
      <clipPath id="SVGID_00000067921504839833943090000009924321395527806129_">
        <path d="M2611.614,1469.768 c-42.765,577.446-440.727,36.341-440.727,36.341c-529.929-455.044-473.061,71.12-461.258,96.694l606.502,779.004h295.483 V1469.768z" style="overflow: visible;"/>
      </clipPath>
      <linearGradient id="SVGID_00000078741406579740490400000010647090367206484356_" gradientUnits="userSpaceOnUse" x1="1506.2191" y1="1329.6984" x2="3115.9929" y2="2333.7188">
        <stop offset="0" style="stop-color:#102770"/>
        <stop offset="1" style="stop-color:#37DACF"/>
      </linearGradient>
      <rect x="1640.958" y="1051.065" style="clip-path:url(#SVGID_00000067921504839833943090000009924321395527806129_);fill:url(#SVGID_00000078741406579740490400000010647090367206484356_);" width="970.655" height="1330.742"/>
    </g>
    <g>
      <defs>
        <path id="SVGID_00000121992280876367251920000017025903458204519816_" d="M1709.629,1602.803c0,0-49.364-509.908,461.258-96.694 l-556.748-705.539h-345.237v1581.236h440.727V1602.803z"/>
      </defs>
      <clipPath id="SVGID_00000041291336526249375810000014767992893464913046_">
        <path d="M1709.629,1602.803c0,0-49.364-509.908,461.258-96.694 l-556.748-705.539h-345.237v1581.236h440.727V1602.803z" style="overflow: visible;"/>
      </clipPath>
      <linearGradient id="SVGID_00000176737096680753914530000005117953646163245246_" gradientUnits="userSpaceOnUse" x1="1409.9838" y1="2518.9583" x2="1964.6567" y2="858.4517">
        <stop offset="0" style="stop-color:#102770"/>
        <stop offset="1" style="stop-color:#37DACF"/>
      </linearGradient>
      <rect x="1268.902" y="800.571" style="clip-path:url(#SVGID_00000041291336526249375810000014767992893464913046_);fill:url(#SVGID_00000176737096680753914530000005117953646163245246_);" width="901.985" height="1581.236"/>
    </g>
    <defs>
      <filter id="Adobe_OpacityMaskFilter" filterUnits="userSpaceOnUse" x="1268.902" y="800.571" width="568.529" height="1581.236">
        <feColorMatrix type="matrix" values="1 0 0 0 0  0 1 0 0 0  0 0 1 0 0  0 0 0 1 0"/>
      </filter>
    </defs>
    <mask maskUnits="userSpaceOnUse" x="1268.902" y="800.571" width="568.529" height="1581.236" id="SVGID_00000097497981718134980730000014663729948636326065_">
      <g style="filter:url(#Adobe_OpacityMaskFilter);">
        <linearGradient id="SVGID_00000122000241394486083430000010146783467764579975_" gradientUnits="userSpaceOnUse" x1="-4458.7817" y1="819.0241" x2="-4392.9082" y2="2787.7632" gradientTransform="matrix(1 0 0 1 5974.1279 -358.158)">
          <stop offset="0" style="stop-color:#FFFFFF"/>
          <stop offset="1" style="stop-color:#000000"/>
        </linearGradient>
        <rect x="1268.902" y="800.571" style="fill:url(#SVGID_00000122000241394486083430000010146783467764579975_);" width="568.529" height="1581.236"/>
      </g>
    </mask>
    <path style="mask:url(#SVGID_00000097497981718134980730000014663729948636326065_);fill-rule:evenodd;clip-rule:evenodd;fill:#5EF9F6;" d=" M1489.265,2381.807l6.342-964.359c0,0,8.371-481.796,341.824-333.909l-223.292-282.968h-345.237v1581.236H1489.265z"/>
    <defs>
      <filter id="Adobe_OpacityMaskFilter_00000112593022710685793680000015148301679289260444_" filterUnits="userSpaceOnUse" x="1774.224" y="1344.562" width="837.39" height="792.624">
        <feColorMatrix type="matrix" values="1 0 0 0 0  0 1 0 0 0  0 0 1 0 0  0 0 0 1 0"/>
      </filter>
    </defs>
    <mask maskUnits="userSpaceOnUse" x="1774.224" y="1344.562" width="837.39" height="792.624" id="SVGID_00000014616499668439451700000015076588360024091304_">
      <g style="filter:url(#Adobe_OpacityMaskFilter_00000112593022710685793680000015148301679289260444_);">
        <linearGradient id="SVGID_00000177485465241483743860000008394593940946152098_" gradientUnits="userSpaceOnUse" x1="-3058.708" y1="2648.7395" x2="-4430.6411" y2="2005.4043" gradientTransform="matrix(1 0 0 1 6195.4341 -465.2895)">
          <stop offset="0" style="stop-color:#FFFFFF"/>
          <stop offset="1" style="stop-color:#000000"/>
        </linearGradient>
        <rect x="1774.224" y="1344.562" style="fill:url(#SVGID_00000177485465241483743860000008394593940946152098_);" width="837.39" height="792.625"/>
      </g>
    </mask>
    <path style="mask:url(#SVGID_00000014616499668439451700000015076588360024091304_);fill-rule:evenodd;clip-rule:evenodd;fill:#5EF9F6;" d=" M1774.224,1371.293l604.99,677.858c0,0,117.429,113.976,232.4,82.557v-661.94c-42.765,577.446-440.727,36.341-440.727,36.341 C1951.156,1328.294,1835.12,1321.42,1774.224,1371.293"/>
    <defs>
      <filter id="Adobe_OpacityMaskFilter_00000088126276932861217510000003344963260542582167_" filterUnits="userSpaceOnUse" x="2170.887" y="800.571" width="212.879" height="908.888">
        <feColorMatrix type="matrix" values="1 0 0 0 0  0 1 0 0 0  0 0 1 0 0  0 0 0 1 0"/>
      </filter>
    </defs>
    <mask maskUnits="userSpaceOnUse" x="2170.887" y="800.571" width="212.879" height="908.888" id="SVGID_00000002366468895769386920000004230877511091289244_">
      <g style="filter:url(#Adobe_OpacityMaskFilter_00000088126276932861217510000003344963260542582167_);">
        <linearGradient id="SVGID_00000122682688953996434500000012279967994770262411_" gradientUnits="userSpaceOnUse" x1="-4184.2329" y1="752.8917" x2="-4073.5364" y2="2136.1775" gradientTransform="matrix(1 0 0 1 6369.1528 -652.6134)">
          <stop offset="0" style="stop-color:#FFFFFF"/>
          <stop offset="1" style="stop-color:#000000"/>
        </linearGradient>
        <rect x="2170.887" y="800.571" style="fill:url(#SVGID_00000122682688953996434500000012279967994770262411_);" width="212.88" height="908.888"/>
      </g>
    </mask>
    <path style="mask:url(#SVGID_00000002366468895769386920000004230877511091289244_);fill-rule:evenodd;clip-rule:evenodd;fill:#37DACF;" d=" M2383.766,1709.458V800.571h-212.879v705.539C2170.887,1506.109,2275.856,1648.834,2383.766,1709.458"/>
    <defs>
      <filter id="Adobe_OpacityMaskFilter_00000098912355384448710470000014045203795589729421_" filterUnits="userSpaceOnUse" x="1708.333" y="1344.562" width="462.554" height="455.095">
        <feColorMatrix type="matrix" values="1 0 0 0 0  0 1 0 0 0  0 0 1 0 0  0 0 0 1 0"/>
      </filter>
    </defs>
    <mask maskUnits="userSpaceOnUse" x="1708.333" y="1344.562" width="462.554" height="455.095" id="SVGID_00000052792086229955398500000009347249431114566588_">
      <g style="filter:url(#Adobe_OpacityMaskFilter_00000098912355384448710470000014045203795589729421_);">
        <linearGradient id="SVGID_00000000216779220531331590000005581184430591867008_" gradientUnits="userSpaceOnUse" x1="-4870.5317" y1="1983.6271" x2="-4062.7224" y2="2236.6692" gradientTransform="matrix(1 0 0 1 6166.5767 -613.1106)">
          <stop offset="0" style="stop-color:#FFFFFF"/>
          <stop offset="1" style="stop-color:#000000"/>
        </linearGradient>
        <rect x="1708.332" y="1344.562" style="fill:url(#SVGID_00000000216779220531331590000005581184430591867008_);" width="462.554" height="455.096"/>
      </g>
    </mask>
    <path style="mask:url(#SVGID_00000052792086229955398500000009347249431114566588_);fill-rule:evenodd;clip-rule:evenodd;fill:#102770;" d=" M1900.026,1512.249c93.691-76.101,270.861-6.14,270.861-6.14c-219.731-177.815-335.767-184.689-396.663-134.816 c-80.616,66.026-64.595,231.51-64.595,231.51l153.263,196.855C1822.931,1637.841,1849.189,1553.542,1900.026,1512.249"/>
    <defs>
      <filter id="Adobe_OpacityMaskFilter_00000026136474421154582520000004474616769687957434_" filterUnits="userSpaceOnUse" x="2170.887" y="1264.676" width="440.727" height="471.508">
        <feColorMatrix type="matrix" values="1 0 0 0 0  0 1 0 0 0  0 0 1 0 0  0 0 0 1 0"/>
      </filter>
    </defs>
    <mask maskUnits="userSpaceOnUse" x="2170.887" y="1264.676" width="440.727" height="471.508" id="SVGID_00000127002952033717057730000003841762702228489643_">
      <g style="filter:url(#Adobe_OpacityMaskFilter_00000026136474421154582520000004474616769687957434_);">
        <linearGradient id="SVGID_00000183950431726223377510000009309473723464940685_" gradientUnits="userSpaceOnUse" x1="-3556.0515" y1="2479.0522" x2="-4202.3115" y2="1961.687" gradientTransform="matrix(1 0 0 1 6369.1528 -640.9089)">
          <stop offset="0" style="stop-color:#FFFFFF"/>
          <stop offset="1" style="stop-color:#000000"/>
        </linearGradient>
        <rect x="2170.887" y="1264.676" style="fill:url(#SVGID_00000183950431726223377510000009309473723464940685_);" width="440.728" height="471.508"/>
      </g>
    </mask>
    <path style="mask:url(#SVGID_00000127002952033717057730000003841762702228489643_);fill-rule:evenodd;clip-rule:evenodd;fill:#102770;" d=" M2611.614,1469.768c0,0-53.336,206.809-227.848,65.427c-57.163-46.311-127.329-129.983-212.879-270.52v241.434 c0,0,104.969,142.725,212.879,203.349C2485.97,1766.876,2590.812,1750.649,2611.614,1469.768"/>
    <defs>
      <filter id="Adobe_OpacityMaskFilter_00000059274065547757322690000013321779288169632150_" filterUnits="userSpaceOnUse" x="1268.902" y="800.571" width="901.985" height="1173.265">
        <feColorMatrix type="matrix" values="1 0 0 0 0  0 1 0 0 0  0 0 1 0 0  0 0 0 1 0"/>
      </filter>
    </defs>
    <mask maskUnits="userSpaceOnUse" x="1268.902" y="800.571" width="901.985" height="1173.265" id="SVGID_00000003809460279208204000000013408353470906210735_">
      <g style="filter:url(#Adobe_OpacityMaskFilter_00000059274065547757322690000013321779288169632150_);">
        <linearGradient id="SVGID_00000047739783129085798730000016312274442753803709_" gradientUnits="userSpaceOnUse" x1="-4374.7139" y1="1006.7564" x2="-4204.1919" y2="2305.0308" gradientTransform="matrix(1 0 0 1 5974.1279 -536.8292)">
          <stop offset="0" style="stop-color:#FFFFFF"/>
          <stop offset="1" style="stop-color:#000000"/>
        </linearGradient>
        <rect x="1268.902" y="800.57" style="fill:url(#SVGID_00000047739783129085798730000016312274442753803709_);" width="901.984" height="1173.265"/>
      </g>
    </mask>
    <path style="mask:url(#SVGID_00000003809460279208204000000013408353470906210735_);fill-rule:evenodd;clip-rule:evenodd;fill:#5EF9F6;" d=" M1517.008,1268.17c98.119-26.174,196.748,48.16,237.607,84.457c12.515,11.117,19.609,18.666,19.609,18.666 c60.896-49.873,176.932-42.999,396.663,134.816l-333.456-422.57l-0.001-0.001l-223.291-282.967h-345.237v1173.265 C1291.139,1462.554,1403.732,1298.386,1517.008,1268.17"/>
  </g>
</svg>